<svg width="971" height="595" viewBox="0 0 971 595" fill="none" xmlns="http://www.w3.org/2000/svg">
<circle cx="501" cy="273" r="13" fill="#9180FF" fill-opacity="0.2"/>
<circle cx="72" cy="528" r="67" fill="#9180FF" fill-opacity="0.2"/>
<circle cx="350.5" cy="179.5" r="37.5" fill="#6C63FF" fill-opacity="0.2"/>
<path fill-rule="evenodd" clip-rule="evenodd" d="M158.808 324.966L158.758 324.885C152.835 315.304 155.783 302.731 165.356 296.784C174.943 290.828 187.542 293.771 193.498 303.358C193.915 304.028 194.288 304.714 194.618 305.411L160.127 326.84C159.658 326.247 159.217 325.622 158.808 324.966Z" fill="#5A5D9F" fill-opacity="0.5"/>
<path fill-rule="evenodd" clip-rule="evenodd" d="M486.131 496.789L485.856 495.838C478.445 469.295 493.79 441.679 520.319 433.995C547.008 426.266 574.909 441.635 582.638 468.324C583.179 470.192 583.607 472.066 583.926 473.939L487.904 501.748C487.234 500.144 486.642 498.49 486.131 496.789Z" fill="#E0E0E0" fill-opacity="0.2"/>
<path d="M19.3051 220.085L58.1898 235.388L24.7524 261.516L19.3051 220.085Z" fill="#9180FF" fill-opacity="0.3"/>
<path d="M929.238 408.137L927.798 490.134L856.805 446.595L929.238 408.137Z" fill="#9180FF" fill-opacity="0.3"/>
<path d="M917.886 68.3761L828.609 146.584L806.222 28.1528L917.886 68.3761Z" fill="#6C63FF" fill-opacity="0.3"/>
<circle cx="738" cy="243" r="101" fill="#6C63FF" fill-opacity="0.4"/>
</svg>
