<svg width="70" height="88" viewBox="0 0 70 88" fill="none" xmlns="http://www.w3.org/2000/svg">
<path d="M65.5 39.5C65.5 48.5448 59.9073 54.7883 55 61C49.4197 68.0636 45.4628 74.5 36.5 74.5C26.9184 74.5 19.0915 68.4299 13.5 60.5C9.26149 54.489 4.5 47.8347 4.5 39.5C4.5 20.17 18.1553 4.5 35 4.5C51.8447 4.5 65.5 20.17 65.5 39.5Z" fill="#FFEE54"/>
<path d="M53.7505 84.625C53.7505 85.4538 53.4213 86.2487 52.8352 86.8347C52.2492 87.4208 51.4543 87.75 50.6255 87.75H19.3755C18.5467 87.75 17.7519 87.4208 17.1658 86.8347C16.5798 86.2487 16.2505 85.4538 16.2505 84.625C16.2505 83.7962 16.5798 83.0014 17.1658 82.4153C17.7519 81.8293 18.5467 81.5 19.3755 81.5H50.6255C51.4543 81.5 52.2492 81.8293 52.8352 82.4153C53.4213 83.0014 53.7505 83.7962 53.7505 84.625ZM69.3755 34.625C69.389 39.8346 68.2121 44.9783 65.9347 49.6637C63.6574 54.3492 60.3397 58.4524 56.2349 61.6602C55.4674 62.2485 54.8445 63.0045 54.4139 63.8704C53.9833 64.7363 53.7564 65.6892 53.7505 66.6563V69C53.7505 70.6576 53.092 72.2473 51.9199 73.4195C50.7478 74.5916 49.1581 75.25 47.5005 75.25H22.5005C20.8429 75.25 19.2532 74.5916 18.0811 73.4195C16.909 72.2473 16.2505 70.6576 16.2505 69V66.6563C16.2499 65.7008 16.0302 64.7582 15.6083 63.9009C15.1864 63.0436 14.5736 62.2944 13.8169 61.711C9.72239 58.5221 6.40694 54.4436 4.12152 49.7841C1.8361 45.1246 0.640601 40.0062 0.625511 34.8164C0.523949 16.1992 15.5708 0.695341 34.1724 0.250029C38.7558 0.139578 43.315 0.947111 47.5816 2.6251C51.8482 4.30308 55.7361 6.81762 59.0163 10.0207C62.2966 13.2238 64.9029 17.0507 66.682 21.2762C68.461 25.5016 69.3768 30.0403 69.3755 34.625ZM63.1255 34.625C63.1266 30.8737 62.3772 27.1601 60.9215 23.7027C59.4658 20.2454 57.3331 17.1142 54.6491 14.4934C51.965 11.8727 48.7838 9.8154 45.2926 8.44264C41.8015 7.06987 38.0711 6.40937 34.3208 6.50003C19.0865 6.8594 6.79348 19.543 6.87551 34.7774C6.88978 39.0219 7.86924 43.2075 9.73978 47.0176C11.6103 50.8277 14.3229 54.1625 17.6724 56.7696C19.178 57.94 20.3959 59.4395 21.2327 61.1531C22.0696 62.8668 22.5033 64.7492 22.5005 66.6563V69H47.5005V66.6563C47.5048 64.7438 47.9459 62.8575 48.7901 61.1414C49.6343 59.4253 50.8593 57.9246 52.3716 56.7539C55.7314 54.1283 58.4468 50.7697 60.3105 46.9345C62.1743 43.0994 63.1371 38.8891 63.1255 34.625ZM56.8325 30.9766C56.0222 26.4504 53.8446 22.2811 50.5929 19.0301C47.3411 15.7791 43.1714 13.6023 38.645 12.793C38.2403 12.7248 37.8261 12.7369 37.4261 12.8288C37.026 12.9206 36.648 13.0904 36.3135 13.3283C35.9791 13.5663 35.6948 13.8678 35.4769 14.2156C35.259 14.5634 35.1117 14.9508 35.0435 15.3555C34.9753 15.7602 34.9874 16.1744 35.0793 16.5745C35.1711 16.9745 35.3409 17.3526 35.5788 17.687C35.8168 18.0214 36.1183 18.3057 36.4661 18.5236C36.8139 18.7416 37.2012 18.8888 37.606 18.9571C44.0786 20.0469 49.5708 25.5391 50.6685 32.0235C50.7921 32.7513 51.1695 33.4118 51.7336 33.888C52.2977 34.3642 53.0123 34.6253 53.7505 34.625C53.9271 34.624 54.1034 34.6096 54.2779 34.5821C55.0947 34.4426 55.8227 33.9844 56.3018 33.3083C56.7808 32.6322 56.9718 31.7935 56.8325 30.9766Z" fill="#9D8E0C"/>
</svg>
