<svg width="508" height="173" viewBox="0 0 508 173" fill="none" xmlns="http://www.w3.org/2000/svg">
<rect x="20" y="90" width="82" height="82" rx="3" stroke="#5A5D9F" stroke-width="2"/>
<rect x="115" y="114" width="58" height="58" rx="3" stroke="#9180FF" stroke-width="2"/>
<path d="M140.577 53.6623C142.133 51.0881 145.867 51.0881 147.423 53.6623L173.24 96.3666C174.851 99.0324 172.932 102.436 169.817 102.436H118.183C115.068 102.436 113.149 99.0324 114.76 96.3666L140.577 53.6623Z" fill="#6C63FF"/>
<mask id="path-4-inside-1_419_1511" fill="white">
<path fill-rule="evenodd" clip-rule="evenodd" d="M193.703 172.997H192.305C191.047 172.984 189.797 172.939 188.556 172.861C186.526 172.734 185 171.011 185 168.977V37.0231C185 34.989 186.526 33.2663 188.556 33.139C190.027 33.0468 191.51 33 193.004 33C231.664 33 263.004 64.3401 263.004 103C263.004 141.427 232.041 172.622 193.703 172.997Z"/>
</mask>
<path d="M193.703 172.997V174.997H193.713L193.722 174.996L193.703 172.997ZM192.305 172.997L192.285 174.996L192.295 174.997H192.305V172.997ZM188.556 172.861L188.681 170.865L188.556 172.861ZM193.703 170.997H192.305V174.997H193.703V170.997ZM192.324 170.997C191.102 170.985 189.887 170.941 188.681 170.865L188.431 174.857C189.707 174.937 190.992 174.984 192.285 174.996L192.324 170.997ZM187 168.977V37.0231H183V168.977H187ZM188.681 35.1351C190.111 35.0455 191.552 35 193.004 35V31C191.468 31 189.943 31.0481 188.431 31.1429L188.681 35.1351ZM193.004 35C230.559 35 261.004 65.4446 261.004 103H265.004C265.004 63.2355 232.768 31 193.004 31V35ZM261.004 103C261.004 140.329 230.926 170.632 193.683 170.997L193.722 174.996C233.156 174.611 265.004 142.525 265.004 103H261.004ZM187 37.0231C187 35.9796 187.769 35.1923 188.681 35.1351L188.431 31.1429C185.283 31.3403 183 33.9984 183 37.0231H187ZM188.681 170.865C187.769 170.808 187 170.02 187 168.977H183C183 172.002 185.283 174.66 188.431 174.857L188.681 170.865Z" fill="#6C63FF" mask="url(#path-4-inside-1_419_1511)"/>
<path d="M271 62H436" stroke="#E0E0E0" stroke-width="2" stroke-linecap="round"/>
<path d="M283 102H436" stroke="#E0E0E0" stroke-width="2" stroke-linecap="round"/>
<path d="M271 142H436" stroke="#E0E0E0" stroke-width="2" stroke-linecap="round"/>
<rect x="453" y="30" width="82" height="142" rx="3" stroke="#9180FF" stroke-width="2"/>
<circle cx="23" cy="40" r="39" stroke="#E0E0E0" stroke-width="2"/>
</svg>
