<svg width="553" height="824" viewBox="0 0 553 824" fill="none" xmlns="http://www.w3.org/2000/svg">
<rect x="37.5" y="741.5" width="81" height="81" rx="2.5" stroke="#F6FFF8" stroke-width="3"/>
<rect x="132.5" y="765.5" width="57" height="57" rx="2.5" stroke="#C3FFD1" stroke-width="3"/>
<path d="M157.577 704.662C159.133 702.088 162.867 702.088 164.423 704.662L190.24 747.367C191.851 750.032 189.932 753.436 186.817 753.436H135.183C132.068 753.436 130.149 750.032 131.76 747.367L157.577 704.662Z" fill="#A6FFBA"/>
<mask id="path-4-inside-1_846_8411" fill="white">
<path fill-rule="evenodd" clip-rule="evenodd" d="M210.703 823.997H209.305C208.047 823.984 206.797 823.939 205.556 823.861C203.526 823.734 202 822.011 202 819.977V688.023C202 685.989 203.526 684.266 205.556 684.139C207.027 684.047 208.51 684 210.004 684C248.664 684 280.004 715.34 280.004 754C280.004 792.427 249.041 823.622 210.703 823.997Z"/>
</mask>
<path d="M210.703 823.997V826.997H210.718L210.732 826.996L210.703 823.997ZM209.305 823.997L209.276 826.996L209.29 826.997H209.305V823.997ZM205.556 823.861L205.744 820.867L205.556 823.861ZM210.703 820.997H209.305V826.997H210.703V820.997ZM209.334 820.997C208.129 820.985 206.932 820.941 205.744 820.867L205.369 826.855C206.662 826.936 207.965 826.984 209.276 826.996L209.334 820.997ZM205 819.977V688.023H199V819.977H205ZM205.744 687.133C207.152 687.045 208.573 687 210.004 687V681C208.447 681 206.902 681.049 205.369 681.145L205.744 687.133ZM210.004 687C247.007 687 277.004 716.997 277.004 754H283.004C283.004 713.683 250.321 681 210.004 681V687ZM277.004 754C277.004 790.78 247.368 820.638 210.674 820.997L210.732 826.996C250.714 826.605 283.004 794.074 283.004 754H277.004ZM205 688.023C205 687.475 205.391 687.155 205.744 687.133L205.369 681.145C201.662 681.377 199 684.503 199 688.023H205ZM205.744 820.867C205.391 820.845 205 820.525 205 819.977H199C199 823.497 201.662 826.623 205.369 826.855L205.744 820.867Z" fill="#A6FFBA" mask="url(#path-4-inside-1_846_8411)"/>
<path d="M288 713H453" stroke="#C3FFD1" stroke-width="3" stroke-linecap="round"/>
<path d="M300 753H453" stroke="#C3FFD1" stroke-width="3" stroke-linecap="round"/>
<path d="M288 793H453" stroke="#C3FFD1" stroke-width="3" stroke-linecap="round"/>
<rect x="470.5" y="681.5" width="81" height="141" rx="2.5" stroke="#A6FFBA" stroke-width="3"/>
<circle cx="40" cy="691" r="38.5" stroke="#C3FFD1" stroke-width="3"/>
<rect x="428.5" y="515.5" width="81" height="81" rx="2.5" transform="rotate(-90 428.5 515.5)" stroke="#F6FFF8" stroke-width="3"/>
<rect x="452.5" y="420.5" width="57" height="57" rx="2.5" transform="rotate(-90 452.5 420.5)" stroke="#C3FFD1" stroke-width="3"/>
<path d="M391.662 395.423C389.088 393.867 389.088 390.133 391.662 388.577L434.367 362.76C437.032 361.149 440.436 363.068 440.436 366.183V417.817C440.436 420.932 437.032 422.851 434.367 421.24L391.662 395.423Z" fill="#A6FFBA"/>
<mask id="path-14-inside-2_846_8411" fill="white">
<path fill-rule="evenodd" clip-rule="evenodd" d="M510.996 342.249V343.743C510.983 344.985 510.938 346.219 510.861 347.444C510.734 349.474 509.011 351 506.977 351H375.023C372.989 351 371.266 349.474 371.139 347.444C371.047 345.973 371 344.49 371 342.996C371 304.336 402.34 272.996 441 272.996C479.411 272.996 510.595 303.933 510.996 342.249Z"/>
</mask>
<path d="M510.996 342.249H513.996V342.233L513.996 342.217L510.996 342.249ZM510.996 343.743L513.996 343.775L513.996 343.759V343.743H510.996ZM510.861 347.444L507.867 347.256L510.861 347.444ZM507.996 342.249V343.743H513.996V342.249H507.996ZM507.996 343.712C507.984 344.901 507.94 346.083 507.867 347.256L513.855 347.631C513.935 346.354 513.982 345.068 513.996 343.775L507.996 343.712ZM506.977 348H375.023V354H506.977V348ZM374.133 347.256C374.045 345.848 374 344.427 374 342.996H368C368 344.553 368.049 346.098 368.145 347.631L374.133 347.256ZM374 342.996C374 305.993 403.997 275.996 441 275.996V269.996C400.683 269.996 368 302.679 368 342.996H374ZM441 275.996C477.764 275.996 507.613 305.607 507.996 342.28L513.996 342.217C513.578 302.259 481.057 269.996 441 269.996V275.996ZM375.023 348C374.475 348 374.155 347.609 374.133 347.256L368.145 347.631C368.377 351.338 371.503 354 375.023 354V348ZM507.867 347.256C507.845 347.609 507.525 348 506.977 348V354C510.497 354 513.623 351.338 513.855 347.631L507.867 347.256Z" fill="#A6FFBA" mask="url(#path-14-inside-2_846_8411)"/>
<path d="M400 265V100" stroke="#C3FFD1" stroke-width="3" stroke-linecap="round"/>
<path d="M440 253V100" stroke="#C3FFD1" stroke-width="3" stroke-linecap="round"/>
<path d="M480 265V100" stroke="#C3FFD1" stroke-width="3" stroke-linecap="round"/>
<rect x="368.5" y="82.5" width="81" height="141" rx="2.5" transform="rotate(-90 368.5 82.5)" stroke="#A6FFBA" stroke-width="3"/>
<circle cx="378" cy="513" r="38.5" transform="rotate(-90 378 513)" stroke="#C3FFD1" stroke-width="3"/>
</svg>
