<svg width="410" height="359" viewBox="0 0 410 359" fill="none" xmlns="http://www.w3.org/2000/svg">
<path d="M38.4375 179.375L102.5 179.375V230.625C102.5 258.893 79.5176 281.875 51.25 281.875H44.8438C34.1934 281.875 25.625 290.443 25.625 301.094V339.531C25.625 350.182 34.1934 358.75 44.8438 358.75H51.25C122.039 358.75 179.375 301.414 179.375 230.625V38.4375C179.375 17.2168 162.158 0 140.938 0H38.4375C17.2168 0 0 17.2168 0 38.4375L0 140.937C0 162.158 17.2168 179.375 38.4375 179.375ZM269.062 179.375L333.125 179.375V230.625C333.125 258.893 310.143 281.875 281.875 281.875H275.469C264.818 281.875 256.25 290.443 256.25 301.094V339.531C256.25 350.182 264.818 358.75 275.469 358.75H281.875C352.664 358.75 410 301.414 410 230.625L410 38.4375C410 17.2168 392.783 0 371.563 0H269.063C247.842 0 230.625 17.2168 230.625 38.4375V140.937C230.625 162.158 247.842 179.375 269.062 179.375Z" fill="#E0E0E0" fill-opacity="0.12"/>
</svg>
