<svg width="200" height="176" viewBox="0 0 200 176" fill="none" xmlns="http://www.w3.org/2000/svg">
<path d="M181.25 88.375H150V63.375C150 49.5859 161.211 38.375 175 38.375H178.125C183.32 38.375 187.5 34.1953 187.5 29V10.25C187.5 5.05469 183.32 0.875 178.125 0.875H175C140.469 0.875 112.5 28.8437 112.5 63.375V157.125C112.5 167.477 120.898 175.875 131.25 175.875H181.25C191.602 175.875 200 167.477 200 157.125V107.125C200 96.7734 191.602 88.375 181.25 88.375ZM68.75 88.375H37.5V63.375C37.5 49.5859 48.7109 38.375 62.5 38.375H65.625C70.8203 38.375 75 34.1953 75 29V10.25C75 5.05469 70.8203 0.875 65.625 0.875H62.5C27.9687 0.875 0 28.8437 0 63.375V157.125C0 167.477 8.39844 175.875 18.75 175.875H68.75C79.1016 175.875 87.5 167.477 87.5 157.125V107.125C87.5 96.7734 79.1016 88.375 68.75 88.375Z" fill="#6C63FF" fill-opacity="0.12"/>
</svg>
