<svg width="44" height="25" viewBox="0 0 44 25" fill="none" xmlns="http://www.w3.org/2000/svg">
<g clip-path="url(#clip0_508_1141)">
<path fill-rule="evenodd" clip-rule="evenodd" d="M31.0227 -8.19482e-06C31.7427 -0.0070082 32.4337 0.109992 33.0817 0.323992C33.1647 0.347992 33.2447 0.378992 33.3267 0.407992C33.3987 0.435992 33.4717 0.460992 33.5427 0.491992C34.7288 0.955013 35.7418 1.7751 36.4415 2.83886C37.1413 3.90262 37.4932 5.1575 37.4487 6.42999C37.4767 7.24999 37.3427 8.06999 37.0347 8.83599C36.1947 13.155 36.6347 15.443 39.6117 15.51C40.2178 15.4434 40.831 15.5133 41.4065 15.7146C41.9821 15.9158 42.5052 16.2433 42.9377 16.673C42.9377 16.673 43.9847 17.686 43.9997 19.515C44.0137 21.328 43.3127 22.25 43.0417 22.538L42.9777 22.603L42.9377 22.639L42.7647 22.812C42.0959 23.4483 41.2408 23.8535 40.3247 23.968C39.7776 24.0383 39.2219 23.9972 38.691 23.8472C38.1602 23.6972 37.6651 23.4415 37.2356 23.0953C36.8061 22.7491 36.4511 22.3197 36.1918 21.8328C35.9325 21.3459 35.7743 20.8116 35.7267 20.262C35.6576 19.4979 35.7922 18.7292 36.1167 18.034C39.3677 11.026 23.3367 10.866 26.0437 17.481C26.0497 17.49 26.0567 17.497 26.0637 17.509C27.3437 19.521 26.6497 22.138 24.5207 23.348C23.7606 23.7766 22.8955 23.9834 22.0237 23.945C21.152 23.9834 20.2869 23.7766 19.5267 23.348C17.3967 22.138 16.7027 19.521 17.9837 17.508L18.0017 17.481C20.7107 10.866 4.67974 11.026 7.92874 18.034C8.24174 18.71 8.39274 19.474 8.31874 20.262C8.27146 20.8115 8.11352 21.3458 7.85443 21.8326C7.59534 22.3195 7.24046 22.749 6.81112 23.0952C6.38178 23.4414 5.88686 23.6972 5.35612 23.8472C4.82537 23.9972 4.26978 24.0383 3.72274 23.968C2.51874 23.819 1.52474 23.184 0.792742 22.266C-0.218258 21.002 -0.309258 18.109 0.792742 17.028C1.89174 15.946 2.97874 15.356 4.43674 15.51C7.41074 15.443 7.85174 13.155 7.01274 8.83599C6.70794 8.07139 6.56625 7.25154 6.59674 6.42899C6.55247 5.15667 6.90453 3.90201 7.60425 2.83845C8.30398 1.77489 9.31681 0.954957 10.5027 0.491992C10.5757 0.460992 10.6477 0.435992 10.7207 0.407992C10.8007 0.378992 10.8827 0.347992 10.9657 0.323992C11.6292 0.103195 12.3246 -0.00628446 13.0237 -8.19482e-06C14.0806 0.00668336 15.1188 0.279886 16.042 0.794314C16.9653 1.30874 17.7439 2.04777 18.3057 2.94299C19.8037 4.55899 20.5587 5.54099 22.0237 5.54099C23.5647 5.54099 24.2417 4.55899 25.7407 2.94299C26.3029 2.04809 27.0816 1.30931 28.0048 0.794928C28.928 0.280544 29.9659 0.00714401 31.0227 -8.19482e-06ZM22.4907 6.99999H22.4807C20.0087 6.99999 17.9997 8.78999 17.9997 11C17.9997 12.237 18.6297 13.343 19.6187 14.076C20.0487 14.441 20.5887 14.706 21.2467 14.843C21.6397 14.944 22.0537 15 22.4817 15H22.5187C22.9457 15 23.3627 14.944 23.7527 14.843C24.4117 14.707 24.9507 14.441 25.3807 14.076C26.3707 13.343 26.9997 12.237 26.9997 11.001C26.9997 8.78999 24.9927 6.99999 22.5187 6.99999L22.5007 7.00199L22.4797 6.99999H22.4907Z" fill="white"/>
</g>
<defs>
<clipPath id="clip0_508_1141">
<rect width="44.0002" height="25.0003" fill="white" transform="translate(0 -0.000305176)"/>
</clipPath>
</defs>
</svg>
