<svg width="492" height="170" viewBox="0 0 492 170" fill="none" xmlns="http://www.w3.org/2000/svg">
<mask id="mask0_370_2585" style="mask-type:alpha" maskUnits="userSpaceOnUse" x="-2" y="45" width="125" height="114">
<rect x="-2" y="45" width="125" height="114" fill="#D9D9D9"/>
</mask>
<g mask="url(#mask0_370_2585)">
<path d="M28.4055 63.5635C24.7218 68.1555 24.7291 74.578 27.2211 79.7348C30.0492 85.587 35.5431 89.1185 41.7961 90.4483C56.3837 93.5505 69.4821 84.9674 83.3861 82.4497C89.837 81.2815 96.7779 81.3431 102.625 84.6505C108.324 87.8745 112.008 93.87 113.633 100.08C115.408 106.861 114.485 114.139 112.285 120.707C110.024 127.464 106.659 133.799 102.326 139.455C98.1181 144.901 92.5801 149.767 85.7958 151.574C82.9901 152.333 80.0574 152.5 77.1835 152.067C74.3095 151.633 71.557 150.607 69.1003 149.053C66.8975 147.626 65.1368 145.612 64.0164 143.239C62.896 140.865 62.4604 138.226 62.7586 135.618C63.5423 130.508 66.2237 125.882 70.2678 122.662C80.1693 114.497 93.9669 117.366 104.591 122.468C118.12 128.965 129.223 139.876 143.641 144.635C155.863 148.636 169.062 148.506 181.204 144.267C195.091 139.383 205.586 130.475 211.736 117.065C213.288 113.638 214.51 110.071 215.385 106.413C215.807 104.687 213.078 104.261 212.658 105.98C208.923 121.259 199.895 132.627 185.672 139.433C173.833 145.031 160.404 146.289 147.732 142.988C132.761 139.078 121.361 128.083 107.923 121.053C97.1063 115.395 82.9885 111.605 71.7301 118.259C62.6704 123.614 56.4506 135.641 62.0783 145.567C65.0201 150.756 70.7301 153.823 76.4875 154.72C82.8559 155.627 89.3339 154.128 94.6567 150.516C100.748 146.552 105.341 140.652 108.975 134.446C112.732 128.281 115.354 121.494 116.719 114.405C118.017 107.607 117.238 100.575 114.483 94.2265C111.698 88.1327 106.884 82.9627 100.503 80.6374C86.4051 75.4996 72.3832 83.3931 58.9572 86.8636C52.3422 88.5735 44.9625 89.2205 38.4939 86.5791C35.6711 85.5114 33.209 83.6649 31.3936 81.2539C29.5783 78.843 28.484 75.9665 28.238 72.9586C28.0187 70.2111 28.8411 67.4817 30.5418 65.3127C30.7589 65.0279 30.857 64.67 30.8153 64.3144C30.7737 63.9587 30.5955 63.6332 30.3185 63.4063C30.0415 63.1795 29.6872 63.069 29.3303 63.0983C28.9734 63.1276 28.6419 63.2944 28.4055 63.5635Z" fill="#9180FF"/>
<path d="M29.7605 65.632C33.9882 67.6909 37.6564 70.7398 40.4537 74.5196C43.251 78.2994 45.0947 82.6985 45.8283 87.3432C46.5173 92.0555 46.0301 96.865 44.41 101.343C42.7898 105.822 40.0871 109.83 36.5427 113.01C29.7894 118.813 19.28 121.267 11.9699 115.059C8.95636 112.549 7.0378 108.965 6.62047 105.066C6.50262 103.169 6.8434 101.272 7.61399 99.5345C8.38458 97.7972 9.5623 96.2712 11.0475 95.0855C17.8961 89.3741 27.4922 90.3046 35.2827 93.2157C40.1048 95.0177 44.656 97.4444 49.3379 99.5667C53.8151 101.618 58.4892 103.209 63.2881 104.315C82.3802 108.646 103.227 105.017 119.249 93.6046C126.501 88.3928 132.653 81.8003 137.351 74.2052C142.049 66.6102 145.201 58.1622 146.626 49.346C146.961 47.1694 147.179 44.9765 147.28 42.7766C147.363 41.0043 144.613 40.7447 144.53 42.5217C143.653 61.2226 133.949 78.9901 119.096 90.2965C102.907 102.62 80.8587 106.291 61.3289 101.003C56.3053 99.5526 51.4239 97.6488 46.7446 95.3153C41.9522 93.0284 37.1539 90.6401 32.0052 89.2526C23.9119 87.0714 13.9628 87.8266 7.8886 94.2728C6.45955 95.7605 5.36468 97.5362 4.67721 99.4812C3.98975 101.426 3.72557 103.496 3.90231 105.551C4.37679 109.739 6.34304 113.616 9.44145 116.474C16.6671 123.29 27.3492 122.532 35.301 117.37C43.6644 111.942 48.6388 102.141 48.8692 92.2513C48.9761 86.1512 47.3198 80.15 44.0992 74.9683C40.8786 69.7866 36.2306 65.6447 30.7135 63.0402C29.1085 62.2712 28.1707 64.8703 29.7605 65.632Z" fill="#9180FF"/>
</g>
<path d="M120.296 131.551C133.167 141.643 146.808 152.269 162.747 156.883C170.353 159.173 178.384 159.681 186.218 158.368C193.052 157.08 199.548 154.399 205.302 150.493C217.298 142.486 226.364 130.468 232.603 117.594C240.329 101.651 244.517 84.3549 250.218 67.656C255.473 52.2634 262.221 36.5157 274.342 25.2212C285.795 14.5499 302.777 8.76483 317.761 15.2487C331.357 21.1318 340.128 34.8626 344.601 48.4627C350.084 65.1373 350.705 82.8657 354.958 99.8243C358.513 114.002 364.815 128.578 376.826 137.6C387.006 145.247 401.892 147.99 413.622 142.373C416.465 141.003 419.037 139.127 421.21 136.838C422.433 135.554 420.535 133.547 419.307 134.837C410.033 144.572 394.589 144.306 383.298 138.41C370.041 131.488 362.75 117.073 358.748 103.273C353.985 86.8477 353.311 69.5748 348.856 53.0784C345.048 38.9791 337.937 25.1025 325.687 16.5563C319.821 12.4086 312.884 10.0413 305.707 9.73854C298.022 9.59025 290.432 11.4527 283.688 15.1414C269.67 22.5834 260.383 36.2384 253.993 50.3706C240.558 80.0825 237.734 115.656 213.858 139.816C203.605 150.192 190.158 157.075 175.307 156.289C158.926 155.421 144.231 146.287 131.36 136.848C128.103 134.459 124.85 131.956 121.672 129.464C120.273 128.367 118.825 130.397 120.296 131.551Z" fill="#9180FF"/>
<g clip-path="url(#clip0_370_2585)">
<path d="M477.299 85.4117C477.299 97.9476 472.913 108.65 464.568 116.615C458.646 122.27 449.523 130.196 449.523 138.576V145.509H421.748V138.576C421.748 130.108 412.59 122.166 406.704 116.615C398.547 108.929 393.973 97.4999 393.973 85.4117V85.1554C394.008 74.1215 398.431 63.5537 406.269 55.7762C414.106 47.9987 424.716 43.6486 435.764 43.6826C446.813 43.7166 457.395 48.1319 465.184 55.9574C472.973 63.783 477.331 74.3778 477.299 85.4117Z" fill="#5A5D9F" fill-opacity="0.3"/>
<path d="M449.522 146.482C449.264 146.482 449.016 146.38 448.833 146.197C448.65 146.015 448.548 145.767 448.548 145.509V138.575C448.548 130.423 456.597 122.814 462.475 117.258C462.963 116.796 463.437 116.349 463.893 115.913C472.023 108.15 476.321 97.6033 476.321 85.4123C476.321 62.628 458.45 44.78 435.635 44.78H435.52C424.784 44.792 414.488 49.049 406.886 56.6203C399.283 64.1916 394.991 74.4611 394.949 85.1835V85.4106C394.949 97.3496 399.477 108.465 407.373 115.909C407.773 116.286 408.189 116.675 408.615 117.073C414.569 122.64 422.723 130.264 422.723 138.575V145.509C422.723 145.767 422.62 146.015 422.437 146.197C422.255 146.38 422.007 146.482 421.748 146.482C421.49 146.482 421.242 146.38 421.059 146.197C420.876 146.015 420.774 145.767 420.774 145.509V138.575C420.774 131.108 412.977 123.818 407.283 118.493C406.855 118.092 406.439 117.702 406.035 117.323C397.751 109.513 393 97.8819 393 85.411V85.1774C393.065 61.804 412.129 42.8321 435.517 42.8321H435.638C446.886 42.7737 457.697 47.1802 465.692 55.0821C473.688 62.984 478.212 73.7342 478.271 84.9676C478.271 85.1158 478.271 85.264 478.271 85.4123C478.271 98.1477 473.764 109.181 465.24 117.32C464.782 117.757 464.305 118.208 463.815 118.671C458.195 123.984 450.496 131.261 450.496 138.575V145.509C450.496 145.767 450.393 146.015 450.21 146.197C450.028 146.38 449.78 146.482 449.521 146.482H449.522Z" fill="#5A5D9F"/>
<path d="M444.895 158.971H426.378C425.947 158.971 425.534 158.8 425.23 158.496C424.925 158.192 424.754 157.779 424.754 157.349C424.754 156.919 424.925 156.506 425.23 156.202C425.534 155.898 425.947 155.727 426.378 155.727H444.895C445.326 155.727 445.739 155.898 446.044 156.202C446.348 156.506 446.519 156.919 446.519 157.349C446.519 157.779 446.348 158.192 446.044 158.496C445.739 158.8 445.326 158.971 444.895 158.971Z" fill="#5A5D9F"/>
<path d="M437.626 169.839H433.641C432.257 169.84 430.898 169.465 429.712 168.752C429.536 168.65 429.4 168.491 429.325 168.302C429.25 168.113 429.241 167.904 429.3 167.71C429.353 167.51 429.472 167.333 429.636 167.207C429.801 167.081 430.003 167.014 430.21 167.015H441.057C441.264 167.014 441.466 167.081 441.63 167.207C441.795 167.333 441.913 167.51 441.967 167.71C442.025 167.904 442.016 168.113 441.942 168.302C441.867 168.491 441.731 168.65 441.555 168.752C440.368 169.465 439.01 169.84 437.626 169.839Z" fill="#5A5D9F" fill-opacity="0.3"/>
<path d="M444.899 164.095L426.273 164.093L426.215 163.97C426.16 163.742 426.158 163.506 426.208 163.277C426.259 163.049 426.361 162.836 426.507 162.653C426.655 162.466 426.844 162.314 427.059 162.21C427.274 162.106 427.51 162.053 427.749 162.053H443.523C443.762 162.053 443.998 162.106 444.214 162.21C444.429 162.314 444.617 162.466 444.765 162.653C444.91 162.833 445.012 163.044 445.063 163.269C445.115 163.494 445.114 163.728 445.061 163.953L445.032 164.079L444.899 164.095Z" fill="#5A5D9F" fill-opacity="0.3"/>
<path d="M392.56 47.1752C392.168 47.1757 391.788 47.0335 391.493 46.7752L377.544 34.6153C377.224 34.331 377.03 33.9323 377.003 33.5057C376.976 33.0792 377.119 32.6593 377.401 32.3373C377.682 32.0154 378.079 31.8173 378.506 31.7863C378.933 31.7552 379.355 31.8936 379.68 32.1714L393.629 44.3313C393.878 44.5485 394.055 44.8364 394.136 45.1566C394.217 45.4769 394.198 45.8141 394.082 46.1233C393.966 46.4326 393.758 46.699 393.486 46.887C393.214 47.075 392.891 47.1757 392.56 47.1755V47.1752Z" fill="#E0E0E0"/>
<path d="M476.398 47.1753C476.068 47.1754 475.745 47.0748 475.473 46.8868C475.201 46.6987 474.993 46.4323 474.877 46.1231C474.761 45.8139 474.742 45.4766 474.823 45.1564C474.904 44.8362 475.081 44.5482 475.33 44.331L489.278 32.1702C489.604 31.8924 490.025 31.754 490.452 31.7851C490.879 31.8161 491.276 32.0142 491.558 32.3361C491.839 32.6581 491.982 33.078 491.955 33.5045C491.929 33.9311 491.734 34.3298 491.415 34.6141L477.466 46.774C477.17 47.0327 476.791 47.1753 476.398 47.1753Z" fill="#E0E0E0"/>
<path d="M449.525 153.214H421.749C421.319 153.214 420.905 153.043 420.601 152.739C420.296 152.435 420.125 152.022 420.125 151.592C420.125 151.162 420.296 150.749 420.601 150.445C420.905 150.141 421.319 149.97 421.749 149.97H449.525C449.955 149.97 450.369 150.141 450.673 150.445C450.978 150.749 451.149 151.162 451.149 151.592C451.149 152.022 450.978 152.435 450.673 152.739C450.369 153.043 449.955 153.214 449.525 153.214Z" fill="#5A5D9F"/>
<path d="M434.952 110.837L429.176 145.509H425.879L431.746 110.305C431.817 109.881 432.053 109.501 432.404 109.251C432.754 109.001 433.19 108.9 433.615 108.97C434.041 109.041 434.42 109.277 434.671 109.627C434.922 109.977 435.023 110.413 434.952 110.837Z" fill="#E0E0E0"/>
<path d="M446.056 145.509H442.759L436.983 110.837C436.912 110.413 437.013 109.977 437.264 109.627C437.515 109.277 437.895 109.041 438.32 108.97C438.745 108.9 439.181 109.001 439.531 109.251C439.882 109.501 440.119 109.881 440.189 110.305L446.056 145.509Z" fill="#E0E0E0"/>
<path d="M425.078 109.679C425.078 109.249 425.249 108.836 425.554 108.532C425.858 108.228 426.272 108.057 426.702 108.057H444.567C444.998 108.057 445.411 108.228 445.716 108.532C446.021 108.836 446.192 109.249 446.192 109.679C446.192 110.109 446.021 110.522 445.716 110.826C445.411 111.13 444.998 111.301 444.567 111.301H426.702C426.272 111.301 425.858 111.13 425.554 110.826C425.249 110.522 425.078 110.109 425.078 109.679Z" fill="#E0E0E0"/>
<path d="M435.636 30.9828C435.205 30.9828 434.792 30.8119 434.487 30.5077C434.183 30.2035 434.012 29.7909 434.012 29.3607V1.62214C434.012 1.19192 434.183 0.779323 434.487 0.475113C434.792 0.170903 435.205 0 435.636 0C436.067 0 436.48 0.170903 436.785 0.475113C437.089 0.779323 437.26 1.19192 437.26 1.62214V29.3607C437.26 29.7909 437.089 30.2035 436.785 30.5077C436.48 30.8119 436.067 30.9828 435.636 30.9828Z" fill="#E0E0E0"/>
</g>
<defs>
<clipPath id="clip0_370_2585">
<rect width="115" height="170" fill="white" transform="translate(377)"/>
</clipPath>
</defs>
</svg>
