<svg width="797" height="878" viewBox="0 0 797 878" fill="none" xmlns="http://www.w3.org/2000/svg">
<path fill-rule="evenodd" clip-rule="evenodd" d="M488.944 180.097L489.498 179.276C505.146 156.591 536.185 150.701 559.071 166.164C582.093 181.72 588.147 212.993 572.591 236.016C571.502 237.628 570.336 239.156 569.102 240.6L486.268 184.633C487.072 183.092 487.964 181.577 488.944 180.097Z" fill="#E0E0E0" fill-opacity="0.12"/>
<circle cx="275" cy="253" r="253" fill="#6C63FF" fill-opacity="0.1"/>
<circle cx="175" cy="703" r="175" fill="#6C63FF" fill-opacity="0.1"/>
<path d="M420.589 728.801L238.095 570.993L470.253 492.706L420.589 728.801Z" fill="#6C63FF" fill-opacity="0.15"/>
<path d="M169.312 157.524L219.026 142.699L206.362 193.836L169.312 157.524Z" fill="#E0E0E0" fill-opacity="0.1"/>
<circle cx="604" cy="622" r="193" fill="#E0E0E0" fill-opacity="0.1"/>
<circle cx="593" cy="521" r="50" fill="#474482" fill-opacity="0.3"/>
</svg>
