<svg width="100" height="100" viewBox="0 0 100 100" fill="none" xmlns="http://www.w3.org/2000/svg">
<path d="M93.7517 53.125V78.125C93.7517 78.9538 93.4225 79.7487 92.8365 80.3347C92.2504 80.9208 91.4555 81.25 90.6267 81.25H65.6267C64.7979 81.25 64.0031 80.9208 63.417 80.3347C62.831 79.7487 62.5017 78.9538 62.5017 78.125C62.5017 77.2962 62.831 76.5014 63.417 75.9153C64.0031 75.3293 64.7979 75 65.6267 75H83.0838L53.1267 45.043L39.7127 58.461C39.4224 58.7515 39.0778 58.982 38.6984 59.1393C38.3191 59.2965 37.9124 59.3775 37.5017 59.3775C37.0911 59.3775 36.6844 59.2965 36.305 59.1393C35.9257 58.982 35.581 58.7515 35.2908 58.461L7.1658 30.336C6.57942 29.7496 6.25 28.9543 6.25 28.125C6.25 27.2958 6.57942 26.5005 7.1658 25.9141C7.75218 25.3277 8.54748 24.9983 9.37674 24.9983C10.206 24.9983 11.0013 25.3277 11.5877 25.9141L37.5017 51.8321L50.9158 38.4141C51.206 38.1235 51.5507 37.893 51.93 37.7358C52.3094 37.5785 52.7161 37.4976 53.1267 37.4976C53.5374 37.4976 53.9441 37.5785 54.3234 37.7358C54.7028 37.893 55.0474 38.1235 55.3377 38.4141L87.5017 70.5821V53.125C87.5017 52.2962 87.831 51.5014 88.417 50.9153C89.0031 50.3293 89.7979 50 90.6267 50C91.4555 50 92.2504 50.3293 92.8365 50.9153C93.4225 51.5014 93.7517 52.2962 93.7517 53.125Z" fill="#A51A1A"/>
</svg>
