<svg width="100" height="100" viewBox="0 0 100 100" fill="none" xmlns="http://www.w3.org/2000/svg">
<path d="M93.7517 21.875V46.875C93.7517 47.7038 93.4225 48.4987 92.8365 49.0847C92.2504 49.6708 91.4555 50 90.6267 50C89.7979 50 89.0031 49.6708 88.417 49.0847C87.831 48.4987 87.5017 47.7038 87.5017 46.875V29.418L55.3377 61.5859C55.0474 61.8765 54.7028 62.107 54.3234 62.2643C53.9441 62.4215 53.5374 62.5025 53.1267 62.5025C52.7161 62.5025 52.3094 62.4215 51.93 62.2643C51.5507 62.107 51.206 61.8765 50.9158 61.5859L37.5017 48.168L11.5877 74.0859C11.0013 74.6723 10.206 75.0017 9.37674 75.0017C8.54748 75.0017 7.75218 74.6723 7.1658 74.0859C6.57942 73.4996 6.25 72.7043 6.25 71.875C6.25 71.0457 6.57942 70.2504 7.1658 69.6641L35.2908 41.5391C35.581 41.2485 35.9257 41.018 36.305 40.8608C36.6844 40.7035 37.0911 40.6225 37.5017 40.6225C37.9124 40.6225 38.3191 40.7035 38.6984 40.8608C39.0778 41.018 39.4224 41.2485 39.7127 41.5391L53.1267 54.957L83.0838 25H65.6267C64.7979 25 64.0031 24.6708 63.417 24.0847C62.831 23.4987 62.5017 22.7038 62.5017 21.875C62.5017 21.0462 62.831 20.2513 63.417 19.6653C64.0031 19.0792 64.7979 18.75 65.6267 18.75H90.6267C91.4555 18.75 92.2504 19.0792 92.8365 19.6653C93.4225 20.2513 93.7517 21.0462 93.7517 21.875Z" fill="#11A117"/>
</svg>
